<?xml version="1.0" standalone="no"?>
<!DOCTYPE svg PUBLIC "-//W3C//DTD SVG 20010904//EN"
 "http://www.w3.org/TR/2001/REC-SVG-20010904/DTD/svg10.dtd">
<svg version="1.0" xmlns="http://www.w3.org/2000/svg"
 width="512.000000pt" height="512.000000pt" viewBox="0 0 512.000000 512.000000"
 preserveAspectRatio="xMidYMid meet">
<metadata>
Created by potrace 1.14, written by Peter Selinger 2001-2017
</metadata>
<g transform="translate(0.000000,512.000000) scale(0.100000,-0.100000)"
fill="#000000" stroke="none">
<path d="M2440 5103 c-40 -7 -130 -42 -191 -74 -63 -34 -85 -64 -76 -107 7
-36 -28 -77 -53 -62 -8 5 -29 10 -47 10 -27 0 -41 -11 -100 -80 -119 -140
-272 -408 -368 -650 -21 -52 -42 -99 -46 -104 -4 -4 -315 -9 -691 -10 -640 -1
-686 -3 -726 -20 -55 -24 -116 -94 -132 -151 -12 -41 -9 -129 5 -192 3 -13 7
-33 10 -45 19 -91 73 -209 151 -331 172 -268 566 -523 855 -553 29 -3 96 -6
146 -7 54 -1 93 -6 94 -12 1 -5 2 -49 3 -97 l1 -86 -60 -15 c-127 -32 -206
-87 -274 -187 -89 -135 -100 -291 -29 -439 43 -90 117 -162 215 -209 75 -36
82 -37 186 -37 59 0 107 -3 107 -6 0 -3 25 -46 56 -95 l56 -89 -23 -15 c-47
-30 -145 -119 -203 -181 -189 -206 -330 -500 -381 -794 -20 -120 -13 -160 34
-178 24 -9 32 -20 41 -56 23 -91 71 -147 155 -182 22 -9 141 -13 439 -15 272
-2 412 -6 419 -13 14 -14 74 -14 82 -1 9 15 906 13 956 -2 31 -9 44 -8 63 2
18 9 112 12 393 12 371 0 436 4 498 34 41 19 99 103 115 165 9 36 18 47 41 56
34 13 51 50 44 98 -3 19 -7 50 -10 68 -50 359 -259 732 -525 940 -36 28 -69
54 -73 57 -4 4 17 46 48 95 30 48 55 92 55 97 0 4 30 5 68 2 191 -18 375 91
451 268 89 208 -4 464 -204 565 -32 17 -140 54 -152 53 -2 0 -6 0 -10 0 -10 0
-10 177 -1 186 4 3 53 8 110 11 57 2 114 6 128 7 269 30 634 256 823 510 113
153 193 356 202 512 5 95 -10 139 -66 196 -77 77 -56 75 -784 76 -352 0 -654
1 -670 1 -29 1 -32 5 -69 99 -214 543 -499 882 -812 962 -73 19 -204 25 -274
13z"/>
</g>
</svg>
